<?xml version="1.0" encoding="UTF-8" standalone="no"?>
<!-- Created with Inkscape (http://www.inkscape.org/) -->

<svg
   xmlns:dc="http://purl.org/dc/elements/1.1/"
   xmlns:cc="http://creativecommons.org/ns#"
   xmlns:rdf="http://www.w3.org/1999/02/22-rdf-syntax-ns#"
   xmlns:svg="http://www.w3.org/2000/svg"
   xmlns="http://www.w3.org/2000/svg"
   xmlns:sodipodi="http://sodipodi.sourceforge.net/DTD/sodipodi-0.dtd"
   xmlns:inkscape="http://www.inkscape.org/namespaces/inkscape"
   width="100mm"
   height="50mm"
   viewBox="0 0 100 50"
   version="1.1"
   id="svg4579"
   inkscape:version="0.92.4 (5da689c313, 2019-01-14)"
   sodipodi:docname="Logo.svg"
   inkscape:export-filename="C:\Users\COULIBALY\Documents\Logo\electrohm\Web Assets\Logo.png"
   inkscape:export-xdpi="72"
   inkscape:export-ydpi="72">
  <defs
     id="defs4573" />
  <sodipodi:namedview
     id="base"
     pagecolor="#ffffff"
     bordercolor="#666666"
     borderopacity="1.0"
     inkscape:pageopacity="0.0"
     inkscape:pageshadow="2"
     inkscape:zoom="2.1722292"
     inkscape:cx="187.50088"
     inkscape:cy="94.488189"
     inkscape:document-units="mm"
     inkscape:current-layer="layer1"
     showgrid="false"
     inkscape:window-width="1366"
     inkscape:window-height="705"
     inkscape:window-x="-8"
     inkscape:window-y="-8"
     inkscape:window-maximized="1" />
  <metadata
     id="metadata4576">
    <rdf:RDF>
      <cc:Work
         rdf:about="">
        <dc:format>image/svg+xml</dc:format>
        <dc:type
           rdf:resource="http://purl.org/dc/dcmitype/StillImage" />
        <dc:title />
      </cc:Work>
    </rdf:RDF>
  </metadata>
  <g
     inkscape:label="Calque 1"
     inkscape:groupmode="layer"
     id="layer1"
     transform="translate(0,-247)">
    <g
       aria-label="electrohm"
       style="font-style:normal;font-variant:normal;font-weight:normal;font-stretch:normal;font-size:13.30544376px;line-height:1.25;font-family:Verdana;-inkscape-font-specification:Verdana;letter-spacing:0px;word-spacing:0px;fill:#280b17;fill-opacity:1;stroke:none;stroke-width:0.33263609"
       id="text3178"
       transform="matrix(1.488458,0,0,1.488458,-23.13822,-134.0655)">
      <path
         inkscape:connector-curvature="0"
         d="m 23.224423,273.70263 h -5.346865 q 0,0.66917 0.201401,1.16943 0.2014,0.49375 0.552227,0.8121 0.337834,0.31184 0.799107,0.46777 0.467769,0.15592 1.026494,0.15592 0.740635,0 1.487767,-0.29236 0.753628,-0.29885 1.071972,-0.58471 h 0.06497 v 1.33184 q -0.617196,0.25988 -1.260379,0.43529 -0.643183,0.17541 -1.351335,0.17541 -1.80611,0 -2.81961,-0.97452 -1.013501,-0.98101 -1.013501,-2.78063 0,-1.78012 0.968023,-2.8261 0.97452,-1.04599 2.559739,-1.04599 1.468276,0 2.260886,0.85758 0.799106,0.85758 0.799106,2.4363 z m -1.188914,-0.93554 q -0.0065,-0.96152 -0.48726,-1.48776 -0.474266,-0.52624 -1.448786,-0.52624 -0.981017,0 -1.565729,0.57821 -0.578215,0.57822 -0.656176,1.43579 z"
         style="font-style:normal;font-variant:normal;font-weight:normal;font-stretch:normal;font-family:Verdana;-inkscape-font-specification:Verdana;fill:#280b17;stroke-width:0.33263609"
         id="path5136" />
      <path
         inkscape:connector-curvature="0"
         d="m 26.310403,277.20441 h -1.221399 v -10.10902 h 1.221399 z"
         style="font-style:normal;font-variant:normal;font-weight:normal;font-stretch:normal;font-family:Verdana;-inkscape-font-specification:Verdana;fill:#280b17;stroke-width:0.33263609"
         id="path5138" />
      <path
         inkscape:connector-curvature="0"
         d="m 34.814712,273.70263 h -5.346865 q 0,0.66917 0.201401,1.16943 0.2014,0.49375 0.552228,0.8121 0.337833,0.31184 0.799106,0.46777 0.467769,0.15592 1.026494,0.15592 0.740635,0 1.487767,-0.29236 0.753629,-0.29885 1.071972,-0.58471 h 0.06497 v 1.33184 q -0.617196,0.25988 -1.260379,0.43529 -0.643183,0.17541 -1.351334,0.17541 -1.80611,0 -2.819611,-0.97452 -1.013501,-0.98101 -1.013501,-2.78063 0,-1.78012 0.968023,-2.8261 0.97452,-1.04599 2.559739,-1.04599 1.468277,0 2.260886,0.85758 0.799106,0.85758 0.799106,2.4363 z m -1.188914,-0.93554 q -0.0065,-0.96152 -0.48726,-1.48776 -0.474266,-0.52624 -1.448786,-0.52624 -0.981017,0 -1.565728,0.57821 -0.578216,0.57822 -0.656177,1.43579 z"
         style="font-style:normal;font-variant:normal;font-weight:normal;font-stretch:normal;font-family:Verdana;-inkscape-font-specification:Verdana;fill:#280b17;stroke-width:0.33263609"
         id="path5140" />
      <path
         inkscape:connector-curvature="0"
         d="m 42.032656,276.74963 q -0.610699,0.29236 -1.162927,0.45478 -0.545731,0.16242 -1.162927,0.16242 -0.786112,0 -1.442289,-0.22739 -0.656177,-0.23389 -1.123946,-0.70166 -0.474267,-0.46777 -0.734139,-1.18241 -0.259871,-0.71465 -0.259871,-1.66968 0,-1.78012 0.974519,-2.79362 0.981017,-1.0135 2.585726,-1.0135 0.623693,0 1.221398,0.17541 0.604203,0.17541 1.104456,0.42879 v 1.35783 h -0.06497 q -0.558725,-0.43529 -1.15643,-0.66917 -0.591209,-0.23389 -1.15643,-0.23389 -1.039488,0 -1.64369,0.70166 -0.597706,0.69516 -0.597706,2.04649 0,1.31235 0.584712,2.0205 0.591209,0.70166 1.656684,0.70166 0.370317,0 0.753628,-0.0974 0.383312,-0.0975 0.688661,-0.25338 0.266369,-0.13643 0.500254,-0.28586 0.233884,-0.15592 0.370317,-0.26637 h 0.06497 z"
         style="font-style:normal;font-variant:normal;font-weight:normal;font-stretch:normal;font-family:Verdana;-inkscape-font-specification:Verdana;fill:#280b17;stroke-width:0.33263609"
         id="path5142" />
      <path
         inkscape:connector-curvature="0"
         d="m 47.373023,277.13944 q -0.34433,0.091 -0.753628,0.14943 -0.402802,0.0585 -0.721145,0.0585 -1.110953,0 -1.689168,-0.59771 -0.578215,-0.5977 -0.578215,-1.91655 v -3.8591 h -0.825093 v -1.0265 h 0.825093 v -2.08547 h 1.221398 v 2.08547 h 2.520758 v 1.0265 h -2.520758 v 3.30687 q 0,0.57172 0.02599,0.89656 0.02599,0.31834 0.18191,0.5977 0.142929,0.25987 0.389808,0.38331 0.253375,0.11694 0.766622,0.11694 0.298853,0 0.623693,-0.0845 0.32484,-0.091 0.467769,-0.14943 h 0.06497 z"
         style="font-style:normal;font-variant:normal;font-weight:normal;font-stretch:normal;font-family:Verdana;-inkscape-font-specification:Verdana;fill:#280b17;stroke-width:0.33263609"
         id="path5144" />
      <path
         inkscape:connector-curvature="0"
         d="m 53.382563,271.27933 h -0.06497 q -0.272865,-0.065 -0.532737,-0.091 -0.253376,-0.0325 -0.604203,-0.0325 -0.565221,0 -1.091462,0.25337 -0.526241,0.24688 -1.0135,0.64319 v 5.15196 h -1.221399 v -7.25693 h 1.221399 v 1.07197 q 0.727641,-0.58471 1.279869,-0.82509 0.558725,-0.24688 1.13694,-0.24688 0.318343,0 0.461272,0.0195 0.14293,0.013 0.428789,0.0585 z"
         style="font-style:normal;font-variant:normal;font-weight:normal;font-stretch:normal;font-family:Verdana;-inkscape-font-specification:Verdana;fill:#280b17;stroke-width:0.33263609"
         id="path5146" />
      <path
         inkscape:connector-curvature="0"
         d="m 60.730441,273.57919 q 0,1.77363 -0.909551,2.80012 -0.909552,1.0265 -2.4363,1.0265 -1.539741,0 -2.449293,-1.0265 -0.903055,-1.02649 -0.903055,-2.80012 0,-1.77362 0.903055,-2.80012 0.909552,-1.03299 2.449293,-1.03299 1.526748,0 2.4363,1.03299 0.909551,1.0265 0.909551,2.80012 z m -1.260379,0 q 0,-1.4098 -0.552228,-2.09197 -0.552227,-0.68866 -1.533244,-0.68866 -0.99401,0 -1.546238,0.68866 -0.545731,0.68217 -0.545731,2.09197 0,1.36433 0.552228,2.07248 0.552228,0.70166 1.539741,0.70166 0.97452,0 1.526748,-0.69516 0.558724,-0.70166 0.558724,-2.07898 z"
         style="font-style:normal;font-variant:normal;font-weight:normal;font-stretch:normal;font-family:Verdana;-inkscape-font-specification:Verdana;fill:#280b17;stroke-width:0.33263609"
         id="path5148" />
      <path
         inkscape:connector-curvature="0"
         d="m 68.695519,277.20441 h -1.221398 v -4.13197 q 0,-0.50025 -0.05847,-0.93554 -0.05847,-0.44178 -0.214394,-0.68866 -0.16242,-0.27286 -0.467769,-0.4028 -0.30535,-0.13643 -0.79261,-0.13643 -0.500253,0 -1.045984,0.24688 -0.545732,0.24688 -1.045985,0.63019 v 5.41833 h -1.221398 v -10.10902 h 1.221398 v 3.6577 q 0.571718,-0.47427 1.182417,-0.74064 0.610699,-0.26637 1.253882,-0.26637 1.175921,0 1.793117,0.70815 0.617196,0.70815 0.617196,2.04 z"
         style="font-style:normal;font-variant:normal;font-weight:normal;font-stretch:normal;font-family:Verdana;-inkscape-font-specification:Verdana;fill:#280b17;stroke-width:0.33263609"
         id="path5150" />
      <path
         inkscape:connector-curvature="0"
         d="m 81.63714,277.20441 h -1.221398 v -4.13197 q 0,-0.46777 -0.04548,-0.90305 -0.03898,-0.43529 -0.175413,-0.69516 -0.149427,-0.27936 -0.428789,-0.42229 -0.279362,-0.14293 -0.805603,-0.14293 -0.513247,0 -1.026494,0.25987 -0.513247,0.25338 -1.026494,0.64968 0.01949,0.14943 0.03248,0.35083 0.01299,0.1949 0.01299,0.38981 v 4.64521 H 75.73155 v -4.13197 q 0,-0.48076 -0.04548,-0.90955 -0.03898,-0.43528 -0.175413,-0.69516 -0.149426,-0.27936 -0.428789,-0.41579 -0.279362,-0.14293 -0.805603,-0.14293 -0.500253,0 -1.007004,0.24688 -0.500253,0.24688 -1.000507,0.63019 v 5.41833 h -1.221398 v -7.25693 h 1.221398 v 0.80561 q 0.571719,-0.47427 1.13694,-0.74064 0.571718,-0.26637 1.214901,-0.26637 0.740636,0 1.253883,0.31185 0.519744,0.31184 0.773119,0.86407 0.740635,-0.62369 1.351334,-0.89656 0.610699,-0.27936 1.305856,-0.27936 1.195411,0 1.760633,0.72764 0.571718,0.72115 0.571718,2.02051 z"
         style="font-style:normal;font-variant:normal;font-weight:normal;font-stretch:normal;font-family:Verdana;-inkscape-font-specification:Verdana;fill:#280b17;stroke-width:0.33263609"
         id="path5152" />
    </g>
    <path
       sodipodi:open="true"
       d="m 85.756744,281.24661 a 22.148117,7.6094694 0 0 1 -11.16729,6.60839 22.148117,7.6094694 0 0 1 -22.240563,-0.0556 22.148117,7.6094694 0 0 1 -10.886033,-6.66355"
       sodipodi:end="3.1561543"
       sodipodi:start="0"
       sodipodi:ry="7.6094694"
       sodipodi:rx="22.148117"
       sodipodi:cy="281.24661"
       sodipodi:cx="63.608627"
       sodipodi:type="arc"
       id="path3180"
       style="opacity:1;vector-effect:none;fill:none;fill-opacity:1;stroke:#c83771;stroke-width:1.38;stroke-linecap:butt;stroke-linejoin:miter;stroke-miterlimit:0;stroke-dasharray:none;stroke-dashoffset:0;stroke-opacity:1" />
    <path
       transform="scale(-1)"
       style="opacity:1;vector-effect:none;fill:none;fill-opacity:1;stroke:#c83771;stroke-width:1.37980056;stroke-linecap:butt;stroke-linejoin:miter;stroke-miterlimit:0;stroke-dasharray:none;stroke-dashoffset:0;stroke-opacity:1"
       id="path3182"
       sodipodi:type="arc"
       sodipodi:cx="-63.608627"
       sodipodi:cy="-262.75336"
       sodipodi:rx="22.148117"
       sodipodi:ry="7.6094694"
       sodipodi:start="0"
       sodipodi:end="3.1561543"
       d="m -41.46051,-262.75336 a 22.148117,7.6094694 0 0 1 -11.16729,6.60839 22.148117,7.6094694 0 0 1 -22.240564,-0.0556 22.148117,7.6094694 0 0 1 -10.886032,-6.66355"
       sodipodi:open="true" />
  </g>
</svg>
